<?xml version="1.0" standalone="no"?>
<!DOCTYPE svg PUBLIC "-//W3C//DTD SVG 20010904//EN"
 "http://www.w3.org/TR/2001/REC-SVG-20010904/DTD/svg10.dtd">
<svg version="1.0" xmlns="http://www.w3.org/2000/svg"
 width="209.000000pt" height="209.000000pt" viewBox="0 0 209.000000 209.000000"
 preserveAspectRatio="xMidYMid meet">
<metadata>
Created by potrace 1.14, written by Peter Selinger 2001-2017
</metadata>
<g transform="translate(0.000000,209.000000) scale(0.100000,-0.100000)"
fill="#000000" stroke="none">
<path d="M677 1633 c-2 -5 -3 -84 -3 -178 l1 -170 27 -3 26 -3 0 133 c0 73 0
143 1 155 1 20 5 21 99 21 216 -1 212 -1 210 27 l-2 25 -178 0 c-97 0 -178 -3
-181 -7z"/>
<path d="M1152 1613 l3 -26 150 -1 150 -1 1 -150 1 -150 26 -3 27 -3 0 180 0
181 -181 0 -180 0 3 -27z"/>
<path d="M949 1363 c-3 -182 1 -297 10 -303 20 -12 135 -3 166 13 93 48 124
159 68 245 -36 55 -87 78 -175 81 l-68 2 -1 -38z m178 -71 c52 -60 10 -159
-69 -166 -24 -2 -38 1 -39 8 -4 73 -1 174 5 184 12 20 78 3 103 -26z"/>
<path d="M679 1163 c-4 -29 -3 -353 1 -354 3 -1 81 -2 173 -3 172 -1 194 3
181 37 -5 14 -28 16 -151 16 -81 1 -148 3 -151 5 -2 3 -5 71 -6 153 -1 145 -1
148 -23 151 -13 2 -24 0 -24 -5z"/>
<path d="M1459 1133 c-1 -21 -1 -91 -1 -155 l0 -118 -37 -1 c-20 0 -88 -1
-151 -2 l-115 -2 0 -25 0 -25 178 0 177 0 -2 180 c-3 178 -3 180 -25 183 -20
3 -23 -1 -24 -35z"/>
<path d="M1227 638 c-25 -13 -22 -55 4 -63 28 -9 53 16 45 43 -8 25 -27 33
-49 20z"/>
<path d="M269 622 c-10 -2 -19 -11 -21 -20 -3 -14 -2 -187 1 -245 1 -15 9 -17
67 -12 75 6 115 28 140 77 29 57 5 143 -50 178 -21 13 -111 28 -137 22z m120
-83 c25 -23 28 -75 6 -106 -15 -21 -71 -41 -83 -29 -3 4 -7 40 -7 81 -1 60 2
75 14 78 24 5 47 -3 70 -24z"/>
<path d="M502 603 c-2 -41 9 -69 28 -70 15 -1 20 5 21 25 0 15 2 35 4 45 2 13
-3 17 -24 17 -19 0 -28 -5 -29 -17z"/>
<path d="M620 533 c-58 -52 -49 -149 18 -181 45 -21 82 -14 131 25 2 1 -4 11
-13 22 -15 17 -20 18 -44 5 -14 -7 -28 -11 -30 -9 -3 2 17 29 44 60 l47 56
-24 22 c-37 34 -90 34 -129 0z m53 -62 c-27 -37 -44 -45 -39 -18 4 23 21 45
41 50 11 2 21 5 23 6 2 0 -9 -17 -25 -38z"/>
<path d="M1013 552 c-27 -4 -28 -8 -9 -53 7 -19 17 -43 21 -54 4 -11 9 -24 11
-30 14 -60 43 -87 71 -69 13 8 83 174 83 197 0 4 -13 7 -29 7 -26 0 -30 -5
-46 -55 -9 -30 -20 -57 -24 -60 -5 -2 -16 23 -26 56 -20 66 -21 67 -52 61z"/>
<path d="M1223 547 c-4 -7 -8 -54 -8 -104 -1 -81 1 -94 17 -99 32 -10 38 5 38
105 0 90 -2 99 -20 104 -11 3 -23 0 -27 -6z"/>
<path d="M1364 549 c-3 -6 -17 -9 -30 -6 -19 3 -24 0 -25 -17 -1 -21 -1 -136
0 -168 1 -20 36 -25 46 -7 4 6 7 36 7 67 1 62 10 82 39 82 23 0 38 -28 39 -71
0 -71 4 -84 28 -85 24 -1 24 -3 26 76 2 60 -14 104 -43 119 -30 16 -79 22 -87
10z"/>
<path d="M1556 527 c-30 -28 -34 -37 -32 -81 2 -41 7 -53 34 -77 45 -40 115
-39 141 3 10 17 10 22 -5 32 -14 11 -22 11 -43 0 -14 -7 -27 -11 -29 -9 -3 2
16 28 42 58 51 60 52 79 4 96 -51 18 -77 13 -112 -22z m53 -66 c-12 -17 -26
-28 -31 -25 -14 9 -9 24 19 52 34 34 43 14 12 -27z"/>
<path d="M1784 546 c-56 -25 -75 -105 -38 -162 34 -51 120 -56 165 -8 34 36
33 114 -2 150 -31 30 -84 39 -125 20z m95 -79 c11 -27 -3 -55 -32 -66 -27 -10
-53 2 -62 29 -22 68 69 104 94 37z"/>
<path d="M833 512 c-27 -3 -33 -7 -33 -28 0 -13 6 -24 13 -25 51 -4 131 -3
138 2 5 3 11 15 14 27 3 17 -1 22 -18 23 -12 0 -35 1 -52 2 -16 1 -45 1 -62
-1z"/>
</g>
</svg>
